<svg version="1.1" id="Layer_1" xmlns="http://www.w3.org/2000/svg" xmlns:xlink="http://www.w3.org/1999/xlink" x="0px" y="0px"
	 width="100%" viewBox="0 0 346 346" enable-background="new 0 0 346 346" xml:space="preserve">
<path fill="#171E60" opacity="1.000000" stroke="none" 
	d="
M1.000000,87.000000 
	C1.000000,58.010296 1.000000,29.520588 1.000000,1.015441 
	C116.281380,1.015441 231.562759,1.015441 346.922058,1.015441 
	C346.922058,116.239677 346.922058,231.479431 346.922058,346.859589 
	C231.666779,346.859589 116.333420,346.859589 1.000000,346.859589 
	C1.000000,260.437347 1.000000,173.968674 1.000000,87.000000 
M332.910553,116.205009 
	C332.826630,114.104904 332.742706,112.004799 332.778595,108.995590 
	C332.738892,104.693741 332.699158,100.391899 332.900940,95.231949 
	C332.837402,92.013840 332.773865,88.795738 332.818146,84.610909 
	C332.783905,62.757370 332.749664,40.903828 332.872253,18.520094 
	C332.565582,18.441673 332.258942,18.363253 331.026398,18.180107 
	C227.698990,18.175333 124.371574,18.170221 21.044159,18.170757 
	C20.046228,18.170761 19.048298,18.245771 17.520672,18.128479 
	C17.442282,18.434906 17.363892,18.741331 17.179823,19.973524 
	C17.176075,110.791214 17.171337,201.608917 17.173834,292.426605 
	C17.173903,294.924011 17.251896,297.421387 17.074781,300.825348 
	C17.145466,304.228973 17.216148,307.632629 17.181671,311.907349 
	C17.234783,314.242767 17.287895,316.578186 17.097675,319.826477 
	C17.097675,323.837280 17.097675,327.848114 17.097675,331.840027 
	C20.870632,331.840027 23.960066,331.840027 27.884821,331.944855 
	C129.436371,331.944855 230.987915,331.944855 332.832001,331.944855 
	C332.832001,330.189758 332.832001,329.045471 332.832001,327.901215 
	C332.832489,260.095459 332.834106,192.289719 332.824280,124.483971 
	C332.824127,123.324615 332.685822,122.165268 332.805725,120.238571 
	C332.768097,119.186707 332.730438,118.134834 332.910553,116.205009 
z"/>
<path fill="#FEFEFE" opacity="1.000000" stroke="none" 
	d="
M18.050367,18.285765 
	C19.048298,18.245771 20.046228,18.170761 21.044159,18.170757 
	C124.371574,18.170221 227.698990,18.175333 331.550629,18.415909 
	C332.227478,18.882490 332.440979,19.015350 332.715424,19.050289 
	C332.749664,40.903828 332.783905,62.757370 332.371216,84.968567 
	C330.633789,84.878067 329.343292,84.429916 327.993896,83.517509 
	C327.935028,63.462715 327.935028,43.872169 327.935028,24.342579 
	C225.639572,24.342579 123.973793,24.342579 22.097971,24.342579 
	C22.097971,26.517546 22.097971,28.333937 22.097971,30.150330 
	C22.097971,106.440483 22.103909,182.730637 22.092470,259.020782 
	C22.090424,272.677704 22.016516,286.334595 21.588634,300.057800 
	C19.898840,300.055634 18.596197,299.987213 17.293552,299.918762 
	C17.251896,297.421387 17.173903,294.924011 17.173834,292.426605 
	C17.171337,201.608917 17.176075,110.791214 17.416000,19.449608 
	C17.883001,18.773418 18.015732,18.560108 18.050367,18.285765 
z"/>
<path fill="#FFFFFF" opacity="1.000000" stroke="none" 
	d="
M332.612000,121.005920 
	C332.685822,122.165268 332.824127,123.324615 332.824280,124.483971 
	C332.834106,192.289719 332.832489,260.095459 332.832001,327.901215 
	C332.832001,329.045471 332.832001,330.189758 332.832001,331.944855 
	C230.987915,331.944855 129.436371,331.944855 27.365765,331.585876 
	C26.242908,329.659790 25.639107,328.092682 25.450287,326.468933 
	C27.527557,326.492279 29.189848,326.572266 30.905800,326.955963 
	C33.492821,328.640656 36.136951,331.306335 38.598450,326.544556 
	C135.258743,326.449280 231.469482,326.449280 327.904175,326.449280 
	C327.904175,323.978790 327.904144,322.154388 327.904144,320.329987 
	C327.904144,255.879562 327.902374,191.429138 327.912567,126.978714 
	C327.912903,124.985863 328.037842,122.993019 328.480469,121.000130 
	C330.108185,121.002029 331.360077,121.003975 332.612000,121.005920 
z"/>
<path fill="#FFFFFF" opacity="1.000000" stroke="none" 
	d="
M332.659485,96.090050 
	C332.699158,100.391899 332.738892,104.693741 332.394897,109.502579 
	C330.685974,111.002144 329.360718,111.994713 327.978699,112.522751 
	C327.959351,105.356148 327.996704,98.654083 328.390991,92.148666 
	C330.051727,93.593567 331.355621,94.841812 332.659485,96.090050 
z"/>
<path fill="#CACBDA" opacity="1.000000" stroke="none" 
	d="
M25.035303,326.525574 
	C25.639107,328.092682 26.242908,329.659790 26.948105,331.533447 
	C23.960066,331.840027 20.870632,331.840027 17.097675,331.840027 
	C17.097675,327.848114 17.097675,323.837280 17.516890,319.477417 
	C19.280024,320.081848 20.623943,321.035339 22.069763,322.382629 
	C23.126209,324.026123 24.080753,325.275848 25.035303,326.525574 
z"/>
<path fill="#CACBDA" opacity="1.000000" stroke="none" 
	d="
M17.184168,300.372070 
	C18.596197,299.987213 19.898840,300.055634 21.689001,300.510071 
	C22.098904,304.603821 22.021286,308.311493 21.661800,311.925049 
	C19.907581,312.122223 19.285322,308.034851 17.286831,311.036255 
	C17.216148,307.632629 17.145466,304.228973 17.184168,300.372070 
z"/>
<path fill="#FEFEFE" opacity="1.000000" stroke="none" 
	d="
M17.234251,311.471802 
	C19.285322,308.034851 19.907581,312.122223 21.717842,312.374817 
	C22.026459,315.942078 21.997164,318.965485 21.967865,321.988861 
	C20.623943,321.035339 19.280024,320.081848 17.638554,319.020966 
	C17.287895,316.578186 17.234783,314.242767 17.234251,311.471802 
z"/>
<path fill="#CACBDA" opacity="1.000000" stroke="none" 
	d="
M332.780212,95.660995 
	C331.355621,94.841812 330.051727,93.593567 328.286011,91.844223 
	C327.900360,88.889328 327.976593,86.435547 328.052795,83.981758 
	C329.343292,84.429916 330.633789,84.878067 332.317322,85.451927 
	C332.773865,88.795738 332.837402,92.013840 332.780212,95.660995 
z"/>
<path fill="#CACBDA" opacity="1.000000" stroke="none" 
	d="
M328.035461,112.987274 
	C329.360718,111.994713 330.685974,111.002144 332.335022,109.957138 
	C332.742706,112.004799 332.826630,114.104904 332.457794,116.635086 
	C330.686310,117.382500 329.367584,117.699821 327.942749,117.607086 
	C327.902893,115.793770 327.969177,114.390526 328.035461,112.987274 
z"/>
<path fill="#FFFFFF" opacity="1.000000" stroke="none" 
	d="
M328.048859,118.017151 
	C329.367584,117.699821 330.686310,117.382500 332.348907,117.074066 
	C332.730438,118.134834 332.768097,119.186707 332.708862,120.622238 
	C331.360077,121.003975 330.108185,121.002029 328.396240,120.633438 
	C327.973755,119.516914 328.011322,118.767036 328.048859,118.017151 
z"/>
<path fill="#CACBDA" opacity="1.000000" stroke="none" 
	d="
M332.793823,18.785191 
	C332.440979,19.015350 332.227478,18.882490 332.013550,18.468273 
	C332.258942,18.363253 332.565582,18.441673 332.793823,18.785191 
z"/>
<path fill="#CACBDA" opacity="1.000000" stroke="none" 
	d="
M17.785519,18.207123 
	C18.015732,18.560108 17.883001,18.773418 17.468840,18.986725 
	C17.363892,18.741331 17.442282,18.434906 17.785519,18.207123 
z"/>
<path fill="#181F60" opacity="1.000000" stroke="none" 
	d="
M327.942749,117.607086 
	C328.011322,118.767036 327.973755,119.516914 328.020447,120.633484 
	C328.037842,122.993019 327.912903,124.985863 327.912567,126.978714 
	C327.902374,191.429138 327.904144,255.879562 327.904144,320.329987 
	C327.904144,322.154388 327.904175,323.978790 327.904175,326.449280 
	C231.469482,326.449280 135.258743,326.449280 38.164375,326.380463 
	C35.137875,326.425171 32.995007,326.538696 30.852137,326.652222 
	C29.189848,326.572266 27.527557,326.492279 25.450283,326.468933 
	C24.080753,325.275848 23.126209,324.026123 22.069767,322.382629 
	C21.997164,318.965485 22.026459,315.942078 21.999712,312.468933 
	C22.021286,308.311493 22.098904,304.603821 22.076153,300.443817 
	C22.016516,286.334595 22.090424,272.677704 22.092470,259.020782 
	C22.103909,182.730637 22.097971,106.440483 22.097971,30.150330 
	C22.097971,28.333937 22.097971,26.517546 22.097971,24.342579 
	C123.973793,24.342579 225.639572,24.342579 327.935028,24.342579 
	C327.935028,43.872169 327.935028,63.462715 327.993896,83.517509 
	C327.976593,86.435547 327.900360,88.889328 327.929138,91.647568 
	C327.996704,98.654083 327.959351,105.356148 327.978699,112.522743 
	C327.969177,114.390526 327.902893,115.793770 327.942749,117.607086 
M251.500046,104.131203 
	C233.061768,104.131203 214.623505,104.131203 196.185226,104.131203 
	C196.136948,104.821854 196.088654,105.512505 196.040359,106.203156 
	C197.154816,106.472290 198.257599,106.905396 199.385483,106.985558 
	C212.795868,107.938713 214.987396,110.282684 214.988174,123.835770 
	C214.990280,160.321869 215.001053,196.807999 214.963531,233.294052 
	C214.960815,235.942978 214.806915,238.627716 214.358109,241.232895 
	C213.351074,247.078629 211.015762,249.238953 205.154999,249.946609 
	C203.179916,250.185074 201.135742,249.905548 199.177979,250.212509 
	C198.047226,250.389816 197.025940,251.265289 195.099533,252.275223 
	C196.845078,252.839386 197.310669,253.121170 197.776581,253.121735 
	C231.929031,253.163116 266.081482,253.180908 300.233948,253.205536 
	C302.869202,253.207428 303.948212,252.113434 304.088379,249.288574 
	C304.566010,239.661407 305.367950,230.050537 306.011139,220.431107 
	C306.110016,218.952332 306.024963,217.461243 306.024963,215.975830 
	C305.440002,215.860519 304.855042,215.745209 304.270081,215.629883 
	C303.436462,217.583923 302.536194,219.512543 301.780243,221.496185 
	C297.397430,232.997009 290.044373,242.194672 277.786896,244.681503 
	C267.846344,246.698273 257.367401,246.644974 247.145218,246.468658 
	C241.099548,246.364395 238.456711,242.807846 238.128967,236.583115 
	C237.761536,229.604141 237.894547,222.596939 237.877167,215.601852 
	C237.847031,203.486130 237.868805,191.370285 237.868805,179.244385 
	C247.992676,179.244385 257.641998,178.697342 267.199890,179.397797 
	C276.812042,180.102234 286.079529,184.288330 287.070129,197.648224 
	C287.135681,198.532562 288.241730,199.339722 289.015869,200.388809 
	C289.015869,184.527817 289.015869,169.381470 289.015869,153.638565 
	C287.743591,154.371948 287.330109,154.465942 287.236908,154.691986 
	C286.989777,155.291229 286.792908,155.939011 286.730652,156.582428 
	C285.957947,164.570206 281.414246,169.831436 273.762695,170.741348 
	C262.007477,172.139236 250.109985,172.340622 237.989594,173.066681 
	C237.989594,154.989883 237.806717,138.190933 238.079330,121.399399 
	C238.188812,114.656059 241.472961,111.606583 248.316315,110.893875 
	C252.935059,110.412865 257.611481,110.148445 262.250671,110.260780 
	C280.180817,110.694962 291.019470,117.614784 295.494049,134.916260 
	C295.804535,136.116852 297.072083,137.069931 297.894562,138.138107 
	C298.869080,128.263824 298.744690,118.951271 298.923920,109.644569 
	C299.007904,105.284073 297.231079,103.902672 292.981476,103.972939 
	C279.490479,104.196007 265.994263,104.102402 251.500046,104.131203 
M177.594498,106.403351 
	C177.594498,103.388275 177.594498,100.373199 177.594498,97.358124 
	C173.392242,102.822746 167.907684,103.962173 161.904755,103.987991 
	C132.611084,104.113983 103.310860,104.653809 74.027878,104.160965 
	C65.078781,104.010353 54.525032,107.741066 47.324669,96.654457 
	C46.085552,113.611450 44.934643,129.361389 43.783730,145.111328 
	C44.386410,145.302231 44.989086,145.493149 45.591766,145.684052 
	C46.525562,143.320053 47.552139,140.987991 48.378502,138.587021 
	C55.082272,119.109413 67.040260,109.359764 84.471146,109.216728 
	C96.850967,109.115143 99.378876,111.575340 99.390762,123.961975 
	C99.416039,150.292114 99.398819,176.622284 99.398415,202.952454 
	C99.398239,214.284424 99.514580,225.618011 99.357803,236.947830 
	C99.234619,245.849686 95.937378,249.202606 87.101097,249.959839 
	C85.278854,250.115982 83.412819,249.904495 81.617645,250.185806 
	C80.289078,250.393982 79.042702,251.126709 77.759712,251.625763 
	C77.883728,252.164398 78.007736,252.703033 78.131744,253.241669 
	C100.114998,252.675903 122.114975,253.226837 144.137985,251.818130 
	C141.815414,250.512772 139.460510,250.219391 137.098038,250.132355 
	C126.350609,249.736374 123.272652,246.780426 122.633751,236.095932 
	C122.574142,235.099213 122.602638,234.096786 122.602608,233.097000 
	C122.601334,197.101334 122.588135,161.105652 122.627457,125.110031 
	C122.630531,122.291252 122.419495,119.254539 123.370934,116.717781 
	C124.262177,114.341530 126.145210,111.506584 128.318558,110.582214 
	C139.109192,105.992699 157.414322,110.850861 163.768692,120.636574 
	C167.545578,126.452972 169.365646,133.541885 172.048660,140.065598 
	C172.810501,141.917969 173.513062,143.794708 174.242813,145.660278 
	C174.706467,145.464005 175.170135,145.267731 175.633789,145.071457 
	C176.273941,132.491211 176.914093,119.910957 177.594498,106.403351 
z"/>
<path fill="#CACBDA" opacity="1.000000" stroke="none" 
	d="
M30.905800,326.955963 
	C32.995007,326.538696 35.137875,326.425171 37.714821,326.475739 
	C36.136951,331.306335 33.492821,328.640656 30.905800,326.955963 
z"/>
<path fill="#F9FAFB" opacity="1.000000" stroke="none" 
	d="
M252.000061,104.131195 
	C265.994263,104.102402 279.490479,104.196007 292.981476,103.972939 
	C297.231079,103.902672 299.007904,105.284073 298.923920,109.644569 
	C298.744690,118.951271 298.869080,128.263824 297.894562,138.138107 
	C297.072083,137.069931 295.804535,136.116852 295.494049,134.916260 
	C291.019470,117.614784 280.180817,110.694962 262.250671,110.260780 
	C257.611481,110.148445 252.935059,110.412865 248.316315,110.893875 
	C241.472961,111.606583 238.188812,114.656059 238.079330,121.399399 
	C237.806717,138.190933 237.989594,154.989883 237.989594,173.066681 
	C250.109985,172.340622 262.007477,172.139236 273.762695,170.741348 
	C281.414246,169.831436 285.957947,164.570206 286.730652,156.582428 
	C286.792908,155.939011 286.989777,155.291229 287.236908,154.691986 
	C287.330109,154.465942 287.743591,154.371948 289.015869,153.638565 
	C289.015869,169.381470 289.015869,184.527817 289.015869,200.388809 
	C288.241730,199.339722 287.135681,198.532562 287.070129,197.648224 
	C286.079529,184.288330 276.812042,180.102234 267.199890,179.397797 
	C257.641998,178.697342 247.992676,179.244385 237.868805,179.244385 
	C237.868805,191.370285 237.847031,203.486130 237.877167,215.601852 
	C237.894547,222.596939 237.761536,229.604141 238.128967,236.583115 
	C238.456711,242.807846 241.099548,246.364395 247.145218,246.468658 
	C257.367401,246.644974 267.846344,246.698273 277.786896,244.681503 
	C290.044373,242.194672 297.397430,232.997009 301.780243,221.496185 
	C302.536194,219.512543 303.436462,217.583923 304.270081,215.629883 
	C304.855042,215.745209 305.440002,215.860519 306.024963,215.975830 
	C306.024963,217.461243 306.110016,218.952332 306.011139,220.431107 
	C305.367950,230.050537 304.566010,239.661407 304.088379,249.288574 
	C303.948212,252.113434 302.869202,253.207428 300.233948,253.205536 
	C266.081482,253.180908 231.929031,253.163116 197.776581,253.121735 
	C197.310669,253.121170 196.845078,252.839386 195.099533,252.275223 
	C197.025940,251.265289 198.047226,250.389816 199.177979,250.212509 
	C201.135742,249.905548 203.179916,250.185074 205.154999,249.946609 
	C211.015762,249.238953 213.351074,247.078629 214.358109,241.232895 
	C214.806915,238.627716 214.960815,235.942978 214.963531,233.294052 
	C215.001053,196.807999 214.990280,160.321869 214.988174,123.835770 
	C214.987396,110.282684 212.795868,107.938713 199.385483,106.985558 
	C198.257599,106.905396 197.154816,106.472290 196.040359,106.203156 
	C196.088654,105.512505 196.136948,104.821854 196.185226,104.131203 
	C214.623505,104.131203 233.061768,104.131203 252.000061,104.131195 
z"/>
<path fill="#F6F7FA" opacity="1.000000" stroke="none" 
	d="
M177.574371,106.867035 
	C176.914093,119.910957 176.273941,132.491211 175.633789,145.071457 
	C175.170135,145.267731 174.706467,145.464005 174.242813,145.660278 
	C173.513062,143.794708 172.810501,141.917969 172.048660,140.065598 
	C169.365646,133.541885 167.545578,126.452972 163.768692,120.636574 
	C157.414322,110.850861 139.109192,105.992699 128.318558,110.582214 
	C126.145210,111.506584 124.262177,114.341530 123.370934,116.717781 
	C122.419495,119.254539 122.630531,122.291252 122.627457,125.110031 
	C122.588135,161.105652 122.601334,197.101334 122.602608,233.097000 
	C122.602638,234.096786 122.574142,235.099213 122.633751,236.095932 
	C123.272652,246.780426 126.350609,249.736374 137.098038,250.132355 
	C139.460510,250.219391 141.815414,250.512772 144.137985,251.818130 
	C122.114975,253.226837 100.114998,252.675903 78.131744,253.241669 
	C78.007736,252.703033 77.883728,252.164398 77.759712,251.625763 
	C79.042702,251.126709 80.289078,250.393982 81.617645,250.185806 
	C83.412819,249.904495 85.278854,250.115982 87.101097,249.959839 
	C95.937378,249.202606 99.234619,245.849686 99.357803,236.947830 
	C99.514580,225.618011 99.398239,214.284424 99.398415,202.952454 
	C99.398819,176.622284 99.416039,150.292114 99.390762,123.961975 
	C99.378876,111.575340 96.850967,109.115143 84.471146,109.216728 
	C67.040260,109.359764 55.082272,119.109413 48.378502,138.587021 
	C47.552139,140.987991 46.525562,143.320053 45.591766,145.684052 
	C44.989086,145.493149 44.386410,145.302231 43.783730,145.111328 
	C44.934643,129.361389 46.085552,113.611450 47.324669,96.654457 
	C54.525032,107.741066 65.078781,104.010353 74.027878,104.160965 
	C103.310860,104.653809 132.611084,104.113983 161.904755,103.987991 
	C167.907684,103.962173 173.392242,102.822746 177.594498,97.358124 
	C177.594498,100.373199 177.594498,103.388275 177.574371,106.867035 
z"/>
</svg>